<svg width="15" height="15" viewBox="0 0 15 15" fill="none" xmlns="http://www.w3.org/2000/svg">
<path d="M9.9144 10.74C8.70877 11.6758 7.19183 12.117 5.67236 11.9738C4.15289 11.8305 2.7451 11.1137 1.73557 9.96904C0.726035 8.82442 0.190634 7.33811 0.238348 5.81265C0.286063 4.2872 0.913308 2.83725 1.9924 1.75797C3.07169 0.678872 4.52163 0.0516271 6.04709 0.00391234C7.57255 -0.0438024 9.05886 0.491599 10.2035 1.50113C11.3481 2.51067 12.065 3.91845 12.2082 5.43792C12.3514 6.95739 11.9102 8.47433 10.9744 9.67997L14.0144 12.72C14.1131 12.8116 14.1853 12.9282 14.2233 13.0575C14.2613 13.1867 14.2638 13.3238 14.2304 13.4544C14.197 13.5849 14.1291 13.704 14.0337 13.7991C13.9383 13.8943 13.819 13.9619 13.6884 13.995C13.558 14.0284 13.4211 14.0261 13.2919 13.9882C13.1627 13.9504 13.0461 13.8784 12.9544 13.78L9.9144 10.74ZM10.7344 5.99997C10.7433 5.40357 10.6335 4.81136 10.4114 4.25779C10.1893 3.70421 9.85941 3.20032 9.4408 2.77542C9.0222 2.35053 8.52328 2.01311 7.97308 1.78281C7.42287 1.5525 6.83236 1.43389 6.2359 1.43389C5.63944 1.43389 5.04893 1.5525 4.49873 1.78281C3.94853 2.01311 3.44961 2.35053 3.031 2.77542C2.6124 3.20032 2.28246 3.70421 2.06038 4.25779C1.8383 4.81136 1.72851 5.40357 1.7374 5.99997C1.75502 7.18143 2.23672 8.30853 3.07843 9.13779C3.92015 9.96705 5.05431 10.4319 6.2359 10.4319C7.41749 10.4319 8.55166 9.96705 9.39337 9.13779C10.2351 8.30853 10.7168 7.18143 10.7344 5.99997Z" fill="#8B949E"/>
</svg>
