<svg width="12" height="12" viewBox="0 0 12 12" fill="none" xmlns="http://www.w3.org/2000/svg">
<mask id="mask0_1_1261" style="mask-type:luminance" maskUnits="userSpaceOnUse" x="0" y="0" width="12" height="12">
<path d="M12 0.153076H0V11.4031H12V0.153076Z" fill="white"/>
</mask>
<g mask="url(#mask0_1_1261)">
<path d="M6 11.4031C9.31369 11.4031 12 8.88466 12 5.77808C12 2.67148 9.31369 0.153076 6 0.153076C2.68629 0.153076 0 2.67148 0 5.77808C0 8.88466 2.68629 11.4031 6 11.4031Z" fill="url(#paint0_linear_1_1261)"/>
<path fill-rule="evenodd" clip-rule="evenodd" d="M6 1.73511C7.19086 1.73511 8.26898 2.18769 9.04941 2.91935C9.8205 3.64229 10.301 4.63796 10.3123 5.73857V5.74081L10.3124 5.7558L10.3125 5.77808L10.3121 5.81534V5.8178C10.301 6.91841 9.8205 7.91386 9.04927 8.63689C8.26898 9.3685 7.19095 9.82104 6 9.82104C4.80914 9.82104 3.731 9.3685 2.95061 8.63681C2.17023 7.90512 1.6875 6.89429 1.6875 5.77786C1.6875 4.66143 2.17023 3.6507 2.95061 2.91914C3.731 2.18748 4.80914 1.73511 6 1.73511ZM8.47866 4.05876C8.64211 4.05876 8.80073 4.07897 8.95177 4.11652C8.50706 3.71186 7.9005 3.46274 7.23183 3.46274C6.5498 3.46274 5.93236 3.72181 5.48555 4.14084C5.03864 4.55978 4.76222 5.13876 4.76222 5.77808C4.76222 6.41739 5.03864 6.99637 5.48555 7.41521C5.93245 7.83423 6.54994 8.09333 7.23183 8.09333C7.9005 8.09333 8.50716 7.84408 8.95177 7.43952C8.80087 7.47718 8.64234 7.4973 8.47884 7.4973C7.97255 7.4973 7.51397 7.30482 7.18223 6.99374C6.85036 6.6826 6.64509 6.25273 6.64509 5.77799C6.64509 5.30325 6.85036 4.87333 7.18223 4.56224C7.51373 4.25135 7.97213 4.05876 8.47866 4.05876ZM9.34317 4.9675C9.12187 4.76017 8.8163 4.63181 8.47852 4.63181C8.14087 4.63181 7.8352 4.76017 7.61386 4.9675C7.39256 5.17497 7.25583 5.46154 7.25583 5.77816C7.25583 6.09479 7.3928 6.3814 7.61386 6.58887C7.8352 6.7962 8.14078 6.92457 8.47852 6.92457C8.8163 6.92457 9.12187 6.7962 9.34317 6.58887C9.56428 6.3814 9.70125 6.09479 9.70125 5.77816L9.70106 5.7634C9.69703 5.45262 9.56091 5.17167 9.34317 4.9675ZM7.23159 2.8897C7.61573 2.8897 7.98323 2.95557 8.32242 3.07603C7.68736 2.59574 6.87942 2.30815 5.99991 2.30815C4.97794 2.30815 4.05245 2.6966 3.38256 3.32442C2.71288 3.95225 2.29856 4.81985 2.29856 5.77808C2.29856 6.73639 2.71278 7.60392 3.38256 8.23181C4.05234 8.85965 4.9777 9.24809 5.99991 9.24809C6.87952 9.24809 7.68722 8.96051 8.32242 8.48014C7.98323 8.6006 7.61573 8.66647 7.23159 8.66647C6.38095 8.66647 5.61056 8.34316 5.05317 7.82048C4.49574 7.29784 4.15083 6.57573 4.15083 5.77816C4.15083 4.98064 4.49574 4.25842 5.05317 3.73576C5.61056 3.213 6.38095 2.8897 7.23159 2.8897Z" fill="white"/>
</g>
<defs>
<linearGradient id="paint0_linear_1_1261" x1="-0.0940058" y1="11.2" x2="10.9865" y2="-0.0168295" gradientUnits="userSpaceOnUse">
<stop stop-color="#04BF77"/>
<stop offset="0.612453" stop-color="#04D082"/>
<stop offset="1" stop-color="#04D484"/>
</linearGradient>
</defs>
</svg>
